<svg xmlns="http://www.w3.org/2000/svg" width="60.333" height="16.127" viewBox="0 0 60.333 16.127">
  <g id="Group_68" data-name="Group 68" transform="translate(-65.667 -438.959)">
    <path id="star" d="M7.953,10.441,5.5,15.421l-5.5.8L3.976,20.1l-.938,5.473,4.915-2.584,4.915,2.584L11.929,20.1l3.976-3.876-5.5-.8Z" transform="translate(65.667 428.518)" fill="#fd0"/>
    <path id="star-2" data-name="star" d="M7.953,10.441,5.5,15.421l-5.5.8L3.976,20.1l-.938,5.473,4.915-2.584,4.915,2.584L11.929,20.1l3.976-3.876-5.5-.8Z" transform="translate(87.881 428.518)" fill="#fd0"/>
    <path id="star-3" data-name="star" d="M7.953,10.441,5.5,15.421l-5.5.8L3.976,20.1l-.938,5.473,4.915-2.584,4.915,2.584L11.929,20.1l3.976-3.876-5.5-.8Z" transform="translate(110.094 429.518)" fill="#fd0"/>
  </g>
</svg>
